<svg xmlns="http://www.w3.org/2000/svg" viewBox="0 0 512 512">
<rect width="512" height="512" rx="112" fill="#061629"/>
<circle cx="382" cy="116" r="58" fill="#ffef64"/>
<path d="M20 332c68-64 140-78 216-42 66 31 132 32 256-42v156H20z" fill="#0b9bad"/>
<path d="M20 358c91-68 172-67 244-10 57 45 124 46 228-10v88H20z" fill="#67f7ff"/>
<path d="M106 306c56-103 144-126 264-69-71-8-119 11-144 57 46-18 92-8 138 30-89-18-172-2-258 48z" fill="#f7fbff"/>
<path d="M197 205c28-18 59-17 85 4l-21 84-102 22 17-90z" fill="#ff6bb5" stroke="#071426" stroke-width="14" stroke-linejoin="round"/>
<circle cx="218" cy="176" r="32" fill="#965b36" stroke="#071426" stroke-width="12"/>
<circle cx="208" cy="170" r="6" fill="#fff"/><circle cx="229" cy="170" r="6" fill="#fff"/>
<path d="M141 324c70-32 139-35 207-7" fill="none" stroke="#ffef64" stroke-width="24" stroke-linecap="round"/>
<path d="M335 273l37-29 15 56z" fill="#75f0a1" stroke="#071426" stroke-width="10"/>
</svg>
